{"title":"The Coalition 2013 BRRip 720p x264 AAC - PRiSTiNE [P2PDL]","uid":8136317,"size":572818606,"categoryP":"video","categoryS":"hd___movies","magnet":"?xt=urn:btih:380cf2ac508e385b1ca637b60d1b14d9e79844d3&amp;dn=The+Coalition+2013+BRRip+720p+x264+AAC+-+PRiSTiNE+%5BP2PDL%5D&amp;tr=udp%3A%2F%2Ftracker.openbittorrent.com%3A80&amp;tr=udp%3A%2F%2Fopen.demonii.com%3A1337&amp;tr=udp%3A%2F%2Ftracker.coppersurfer.tk%3A6969&amp;tr=udp%3A%2F%2Fexodus.desync.com%3A6969","seeders":3,"leechers":1,"uploader":"ValidusVyto","files":-1,"time":1360717618,"description":"_________________________  Visit us at _________________________\n  &lt;a href=&quot;\nhttp://p2pdl.com&quot; rel=&quot;nofollow&quot; target=&quot;_NEW&quot;&gt;\nhttp://p2pdl.com&lt;/a&gt;  ____________________________ &lt;a href=&quot; http://p2pdl.com&quot; rel=&quot;nofollow&quot; target=&quot;_NEW&quot;&gt; http://p2pdl.com&lt;/a&gt;\n\n\nThe Coalition 2013 BRRip 720p x264 AAC - PRiSTiNE [P2PDL]\n\t\t\t\t\nGenre: Comedy | Romance\nFour women band together to get revenge on four young successful players because the guys mistreated them in some way.\nDirector: Monica Mingo\nStars: Ricardo Alvarado, Sant'e Andrews, Adrienne Bailon\nRated: Rated R for language and some sexual content\n\nInfo:  &lt;a href=&quot;\nhttp://www.imdb.com/title/tt2040537/&quot; rel=&quot;nofollow&quot; target=&quot;_NEW&quot;&gt;\nhttp://www.imdb.com/title/tt2040537/&lt;/a&gt;\n\nTrailer: \n\n\n\nGeneral\nFormat                         : MPEG-4\nFormat profile                 : Base Media / Version 2\nCodec ID                       : mp42\nFile size                      : 539 MiB\nDuration                       : 1h 40mn\nOverall bit rate mode          : Variable\nMovie name                     : The Coalition 2013 BRRip 720p x264 AAC - PRiSTiNE [P2PDL]\n\nSource                         : 720p.BluRay.x264-ROVERS (Thanks)\n\nVideo\nFormat                         : AVC\nWidth                          : 1 280 pixels\nHeight                         : 720 pixels\nDisplay aspect ratio           : 16:9\nFrame rate mode                : Variable\nFrame rate                     : 23.976 fps\nStream size                    : 478 MiB (89%)\nWriting library                : x264 core 129\n\nAudio\nFormat                         : AAC\nBit rate mode                  : Variable\nBit rate                       : 80.0 Kbps\nChannel(s)                     : 2 channels\nChannel positions              : Front: L R\nSampling rate                  : 48.0 KHz\nStream size                    : 57.4 MiB (11%)\n\nSubtitle                       : Yes ( English)\n\n\nScreens:\n &lt;a href=&quot;\nhttp://www.shotpix.com/images/23641957967084358335.jpg&quot; rel=&quot;nofollow&quot; target=&quot;_NEW&quot;&gt;\nhttp://www.shotpix.com/images/23641957967084358335.jpg&lt;/a&gt; &lt;a href=&quot;\nhttp://www.shotpix.com/images/12810503623962545255.jpg&quot; rel=&quot;nofollow&quot; target=&quot;_NEW&quot;&gt;\nhttp://www.shotpix.com/images/12810503623962545255.jpg&lt;/a&gt; &lt;a href=&quot;\nhttp://www.shotpix.com/images/69973490137971671964.jpg&quot; rel=&quot;nofollow&quot; target=&quot;_NEW&quot;&gt;\nhttp://www.shotpix.com/images/69973490137971671964.jpg&lt;/a&gt; &lt;a href=&quot;\nhttp://www.shotpix.com/images/56000045220987661536.jpg&quot; rel=&quot;nofollow&quot; target=&quot;_NEW&quot;&gt;\nhttp://www.shotpix.com/images/56000045220987661536.jpg&lt;/a&gt; &lt;a href=&quot;\nhttp://www.shotpix.com/images/58553377730065922055.jpg&quot; rel=&quot;nofollow&quot; target=&quot;_NEW&quot;&gt;\nhttp://www.shotpix.com/images/58553377730065922055.jpg&lt;/a&gt;\n\n\nThumbs:\n &lt;a href=&quot;\nhttp://www.shotpix.com/images/62718340764485059208.jpg&quot; rel=&quot;nofollow&quot; target=&quot;_NEW&quot;&gt;\nhttp://www.shotpix.com/images/62718340764485059208.jpg&lt;/a&gt;\n\n----------------------------------------------------------------------------------------------------\n\n\nRecommend to you to use latest version of VLC player. Install K-Lite Codec Pack or shark007 codecs\nin case of any kind of problem in playback (For non-VLC Media Player users). Alternatively, install\nCore AVC codecs, the fastest decoder that there is coupled with Community Center Codec Pack and play\non Windows Media Player Classic. Check sample to be sure.\nEnjoy!\n\nGreets to: VYTO, a2zRG, MusiK_KinG, Neon, Kuroyukihime, TorDigger, Ash968, StyLishSaLH and staff members at\nExtraTorrent, TPB, H33T, KAT, 1337x, PublicHD, Ahashare, BTScene, SilverTorrent, LimeTorrents, TorrentMafia,\nP2PDL, and all others.\n\nEncoder Notes: Looking For Early Access To Anything You Can Provide DVDScr, R5, DVDR, BluRay, Direct\nAudio, Early Music Releases, Seedboxes, Dedicated Servers anything u can provide, Advance / Promo CDs/\nDVDs. If You Got anything to offer contact me at &quot;&lt;a class=&quot;__cf_email__&quot; href=&quot;/cdn-cgi/l/email-protection&quot; data-cfemail=&quot;c1b1b3a681a9b4b2a9efa2aeac&quot;&gt;[email&amp;#160;protected]&lt;/a&gt;&lt;script cf-hash='f9e31' type=&quot;text/javascript&quot;&gt;\n/* &lt;![CDATA[ */!function(){try{var t=&quot;currentScript&quot;in document?document.currentScript:function(){for(var t=document.getElementsByTagName(&quot;script&quot;),e=t.length;e--;)if(t[e].getAttribute(&quot;cf-hash&quot;))return t[e]}();if(t&amp;&amp;t.previousSibling){var e,r,n,i,c=t.previousSibling,a=c.getAttribute(&quot;data-cfemail&quot;);if(a){for(e=&quot;&quot;,r=parseInt(a.substr(0,2),16),n=2;a.length-n;n+=2)i=parseInt(a.substr(n,2),16)^r,e+=String.fromCharCode(i);e=document.createTextNode(e),c.parentNode.replaceChild(e,c)}}}catch(u){}}();/* ]]&gt; */&lt;/script&gt;&quot;.","torrent":{"xt":"urn:btih:380cf2ac508e385b1ca637b60d1b14d9e79844d3","amp;dn":"The+Coalition+2013+BRRip+720p+x264+AAC+-+PRiSTiNE+%5BP2PDL%5D","amp;tr":["udp%3A%2F%2Ftracker.openbittorrent.com%3A80","udp%3A%2F%2Fopen.demonii.com%3A1337","udp%3A%2F%2Ftracker.coppersurfer.tk%3A6969","udp%3A%2F%2Fexodus.desync.com%3A6969"],"infoHash":"380cf2ac508e385b1ca637b60d1b14d9e79844d3","infoHashBuffer":{"type":"Buffer","data":[56,12,242,172,80,142,56,91,28,166,55,182,13,27,20,217,231,152,68,211]},"announce":[],"urlList":[]}}